<?xml version="1.0" encoding="utf-8"?>
<!-- Generator: Adobe Illustrator 28.1.0, SVG Export Plug-In . SVG Version: 6.00 Build 0)  -->
<svg version="1.1" id="Layer_1" xmlns="http://www.w3.org/2000/svg" xmlns:xlink="http://www.w3.org/1999/xlink" x="0px" y="0px"
	 viewBox="0 0 181 47" style="enable-background:new 0 0 181 47;" xml:space="preserve">
<style type="text/css">
	.st0{fill:#FFFFEA;}
	.st1{fill:#FFD379;}
	.st2{fill:#D0DB58;}
	.st3{fill:none;stroke:#2C3C28;stroke-width:1.5;stroke-linecap:round;stroke-linejoin:round;stroke-miterlimit:10;}
	.st4{fill:#7BAB47;}
	.st5{fill:#A0C73A;}
	.st6{fill:none;stroke:#2C3C28;stroke-width:1.5412;stroke-linecap:round;stroke-linejoin:round;stroke-miterlimit:10;}
	.st7{fill:none;stroke:#2C3C28;stroke-width:1.2;stroke-linecap:round;stroke-linejoin:round;stroke-miterlimit:10;}
	.st8{fill:#2C3C28;}
	.st9{fill:#6DA82D;}
</style>
<g>
	<path class="st0" d="M44.5,31.5C49,19.9,43.2,6.9,31.6,2.5S7,3.8,2.5,15.4C-2,27,3.8,40,15.4,44.5C27,48.9,40,43.1,44.5,31.5z"/>
	<path class="st1" d="M34.1,23.5c0,5.8-4.7,10.6-10.6,10.6c-5.8,0-10.6-4.7-10.6-10.6c0-5.8,4.7-10.6,10.6-10.6
		C29.3,12.9,34.1,17.6,34.1,23.5z"/>
	<path class="st2" d="M23.5,34.1c5.8,0,10.6-4.7,10.6-10.6c0-0.9-0.1-1.9-0.4-2.7c-4.5,0.8-8.8,2-12.7,3.6c-2.6-0.8-5.3-1.4-8.1-1.9
		c0,0.3,0,0.6,0,1C12.9,29.3,17.7,34.1,23.5,34.1z"/>
	<path class="st3" d="M34.1,23.5c0,5.8-4.7,10.6-10.6,10.6c-5.8,0-10.6-4.7-10.6-10.6c0-5.8,4.7-10.6,10.6-10.6
		C29.3,12.9,34.1,17.6,34.1,23.5z"/>
	<path class="st4" d="M46,22.7c0-0.4,0-0.8-0.1-1.2c-17,0.7-32.4,5.9-40.1,15.9c1,1.3,2.1,2.5,3.4,3.5c1.3,1,2.6,1.9,4.1,2.7
		c1.5,0.7,3,1.3,4.6,1.8c1.6,0.4,3.3,0.6,5.1,0.7c0.2,0,0.4,0,0.5,0c1.7,0,3.4-0.2,5-0.6c2.3-0.5,4.5-1.4,6.4-2.6
		c4.1-2.4,7.4-6.2,9.3-10.6c0.4-1,0.8-2,1-3.1c0.2-0.7,0.3-1.4,0.4-2.1c0.1-0.5,0.2-1.1,0.2-1.7c0-0.5,0.1-1,0.1-1.5
		c0-0.2,0-0.4,0-0.5C46,23.2,46,22.9,46,22.7z"/>
	<path class="st5" d="M45.3,25c-0.3,1.1-0.7,2.2-1.1,3.3c-2,4.8-5.6,8.8-10,11.4C32,41,29.7,42,27.2,42.5c-1.7,0.4-3.5,0.6-5.4,0.6
		c-0.2,0-0.4,0-0.6,0c-1.9,0-3.7-0.3-5.5-0.7c-1.7-0.4-3.4-1.1-5-1.9c-1.6-0.8-3.1-1.8-4.4-2.9c-0.2-0.1-0.3-0.3-0.5-0.4
		c0,0.1-0.1,0.1-0.1,0.2c1,1.3,2.1,2.5,3.4,3.5c1.3,1,2.6,1.9,4.1,2.7c1.5,0.7,3,1.3,4.6,1.8c1.6,0.4,3.3,0.6,5.1,0.7
		c0.2,0,0.4,0,0.5,0c1.7,0,3.4-0.2,5-0.6c2.3-0.5,4.5-1.4,6.4-2.6c4.1-2.4,7.4-6.2,9.3-10.6c0.4-1,0.8-2,1-3.1
		c0.2-0.7,0.3-1.4,0.4-2.1c0.1-0.5,0.2-1.1,0.2-1.7c0-0.5,0.1-1,0.1-1.5c0-0.2,0-0.4,0-0.5c0-0.3,0-0.5,0-0.8c0-0.3,0-0.6-0.1-0.9
		c0,0.4-0.1,0.7-0.1,1.1C45.6,23.6,45.5,24.3,45.3,25z"/>
	<path class="st6" d="M44.2,32.2c-3.8,3.2-7,6.9-9.3,10.6C39.1,40.4,42.3,36.7,44.2,32.2z"/>
	<path class="st6" d="M45.9,25.5c0-0.5,0.1-1,0.1-1.5c-14.9,2.7-27.7,10-32.7,19.5c1.5,0.7,3,1.3,4.6,1.8C22,36.8,32.8,29,45.9,25.5
		z"/>
	<path class="st7" d="M46,24c0-0.2,0-0.4,0-0.5c0-0.3,0-0.5,0-0.8c-16.2,1.7-30.5,8-36.8,18.1c1.3,1,2.6,1.9,4.1,2.7
		C18.3,34,31.1,26.7,46,24z"/>
	<path class="st7" d="M46,22.7c0-0.4,0-0.8-0.1-1.2c-17,0.7-32.4,5.9-40.1,15.9c1,1.3,2.1,2.5,3.4,3.5C15.5,30.7,29.7,24.4,46,22.7z
		"/>
	<path class="st7" d="M44.2,32.2c0.4-1,0.8-2,1-3.1c-7.5,4.2-13.6,10.5-16.7,16.2c2.3-0.5,4.5-1.4,6.4-2.6
		C37.2,39.2,40.4,35.4,44.2,32.2z"/>
	<path class="st7" d="M45.3,29.2c0.2-0.7,0.3-1.4,0.4-2.1C35.1,31.2,26.5,38.8,23,45.9c0.2,0,0.4,0,0.5,0c1.7,0,3.4-0.2,5-0.6
		C31.7,39.7,37.7,33.4,45.3,29.2z"/>
	<path class="st7" d="M45.7,27.1c0.1-0.5,0.2-1.1,0.2-1.7C32.8,29,22,36.8,17.9,45.3c1.6,0.4,3.3,0.6,5.1,0.7
		C26.5,38.8,35.1,31.3,45.7,27.1z"/>
	<path class="st5" d="M1,23.4C1,23.4,1,23.5,1,23.4c0,0.4,0,0.7,0,1c0,0.4,0,0.7,0.1,1.1c0,0.4,0.1,0.8,0.1,1.2
		c0.1,0.4,0.1,0.9,0.2,1.3c0.1,0.5,0.2,1,0.4,1.6C2,30.2,2.3,31,2.6,31.7c2,5.2,5.9,9.4,10.8,11.9c1.7,0.9,3.6,1.5,5.5,1.9
		c1.5,0.3,3,0.5,4.6,0.5c0.1,0,0.2,0,0.3,0c6.3-0.1,12-2.8,16-7.1C32.9,28.7,17.7,23.8,1,23.4z"/>
	<path class="st2" d="M26.2,42.8c-1.8,0-3.6-0.2-5.3-0.5c-2.2-0.5-4.4-1.2-6.4-2.2C8.9,37.2,4.4,32.3,2.1,26.4
		c-0.3-0.8-0.6-1.6-0.8-2.5c0-0.2-0.1-0.3-0.1-0.5c0,0-0.1,0-0.1,0c0,0,0,0,0,0c0,0.3,0,0.7,0,1c0,0.4,0,0.7,0.1,1.1
		c0,0.4,0.1,0.8,0.1,1.2c0.1,0.4,0.1,0.9,0.2,1.3c0.1,0.5,0.2,1,0.4,1.6C2,30.2,2.3,31,2.6,31.7c2,5.2,5.9,9.4,10.8,11.9
		c1.7,0.9,3.6,1.5,5.5,1.9c1.5,0.3,3,0.5,4.6,0.5c0.1,0,0.2,0,0.3,0c6.3-0.1,11.9-2.8,16-7c-3.9,2.4-8.4,3.8-13.2,3.9
		C26.4,42.8,26.3,42.8,26.2,42.8z"/>
	<path class="st6" d="M1.8,29.5C2,30.2,2.3,31,2.6,31.7c4.6,3.3,8.4,7.7,10.8,11.9c1.7,0.9,3.6,1.5,5.5,1.9
		C15.9,39.8,9.6,33.3,1.8,29.5z"/>
	<path class="st7" d="M2.6,31.7c2,5.2,5.9,9.4,10.8,11.9C10.9,39.4,7.1,35,2.6,31.7z"/>
	<path class="st7" d="M1.5,28c0.1,0.5,0.2,1,0.4,1.6c7.8,3.8,14.1,10.3,17.1,16c1.5,0.3,3,0.5,4.6,0.5c0.1,0,0.2,0,0.3,0
		C20.6,39,12,31.6,1.5,28z"/>
	<path class="st7" d="M1,24.4c0-0.3,0-0.6,0-1c0,0,0,0,0,0c16.7,0.3,31.9,5.3,38.9,15.4c-4,4.3-9.7,7-16,7.1C20.6,39,12,31.6,1.5,28
		c-0.1-0.4-0.2-0.9-0.2-1.3 M1,24.4c15.7,1.2,29.7,7.3,35.4,17.1C30.7,31.7,16.8,25.7,1,24.4z M1,24.4c0,0.4,0,0.7,0.1,1.1
		 M1.1,25.5c14.3,2.1,26.6,8.9,31.3,17.9C27.7,34.4,15.4,27.6,1.1,25.5z M1.1,25.5c0,0.4,0.1,0.8,0.1,1.2 M1.2,26.7
		c12.7,3,23.5,10.5,27.1,18.7"/>
	<path class="st3" d="M44.5,31.5C49,19.9,43.2,6.9,31.6,2.5S7,3.8,2.5,15.4C-2,27,3.8,40,15.4,44.5C27,48.9,40,43.1,44.5,31.5z"/>
</g>
<g>
	<g>
		<path class="st8" d="M52.8,33.6V13.3h14.3v4.1h-9.6v3.9h8.3v3.9h-8.3v4.2h9.7v4.1H52.8z"/>
		<path class="st8" d="M69.3,23.4c0-5.1,3.4-10.4,10.2-10.4c8.6,0,9.3,7.5,9.3,7.5h-4.7c0,0-0.5-3.3-4.5-3.3c-3.6,0-5.3,3.1-5.3,6.2
			s1.8,6.2,5.3,6.2c4.1,0,4.5-3.2,4.5-3.2h4.7c0,0-0.7,7.5-9.3,7.5C72.7,33.9,69.3,28.6,69.3,23.4z"/>
		<path class="st8" d="M90.7,23.4c0-5.1,3.5-10.4,10.4-10.4s10.4,5.2,10.4,10.4c0,5.2-3.5,10.4-10.4,10.4S90.7,28.6,90.7,23.4z
			 M106.5,23.4c0-3.1-1.9-6.2-5.4-6.2c-3.6,0-5.4,3.1-5.4,6.2c0,3.1,1.8,6.2,5.4,6.2C104.6,29.6,106.5,26.6,106.5,23.4z"/>
	</g>
	<g>
		<path class="st9" d="M130,25.5c-0.1-2.6-0.3-5.7-0.3-8h-0.1c-0.6,2.2-1.4,4.5-2.3,7l-3.3,9h-1.8l-3-8.8c-0.9-2.6-1.6-5-2.1-7.2
			h-0.1c-0.1,2.3-0.2,5.4-0.4,8.2l-0.5,7.9H114l1.3-18.5h3l3.1,8.9c0.8,2.3,1.4,4.3,1.9,6.2h0.1c0.5-1.9,1.1-3.9,1.9-6.2l3.3-8.9h3
			l1.1,18.5h-2.3L130,25.5z"/>
		<path class="st9" d="M139.2,27.8l-1.9,5.8h-2.5l6.3-18.5h2.9l6.3,18.5h-2.5l-2-5.8H139.2z M145.2,25.9l-1.8-5.3
			c-0.4-1.2-0.7-2.3-1-3.4h-0.1c-0.3,1.1-0.6,2.2-0.9,3.3l-1.8,5.3H145.2z"/>
		<path class="st9" d="M153,15.4c1.2-0.2,2.9-0.4,4.6-0.4c2.5,0,4.2,0.5,5.3,1.5c0.9,0.8,1.5,2.1,1.5,3.5c0,2.4-1.5,4.1-3.5,4.7v0.1
			c1.4,0.5,2.3,1.8,2.7,3.7c0.6,2.6,1,4.4,1.4,5.1h-2.5c-0.3-0.5-0.7-2.1-1.2-4.4c-0.5-2.5-1.5-3.5-3.7-3.6h-2.2v8H153V15.4z
			 M155.3,23.8h2.4c2.5,0,4.2-1.4,4.2-3.5c0-2.4-1.7-3.4-4.2-3.4c-1.2,0-2,0.1-2.4,0.2V23.8z"/>
		<path class="st9" d="M171.4,17.2h-5.6v-2h13.7v2h-5.6v16.4h-2.4V17.2z"/>
	</g>
</g>
</svg>
